<svg xmlns="http://www.w3.org/2000/svg" viewBox="0 0 971.44 867.94" width="971.44" height="867.94"><g transform="translate(-487.408020,1507.940550) scale(0.100000,-0.100000)" fill="#00FF73" stroke="none"><path d="M7962 15060 c-125 -33 -242 -104 -310 -189 -18 -22 -148 -239 -288
-483 -141 -244 -365 -630 -497 -858 -133 -228 -252 -444 -266 -480 -21 -55
-25 -82 -25 -180 -1 -137 10 -176 90 -311 140 -236 515 -873 889 -1509 388
-660 705 -1200 1126 -1915 131 -223 196 -323 214 -333 28 -14 77 -9 93 11 6 7
67 111 137 232 70 121 162 281 206 356 61 106 79 144 79 174 0 40 -11 60 -610
1080 -81 138 -218 372 -305 520 -87 149 -207 351 -265 450 -560 943 -680 1154
-690 1203 -18 99 -10 117 268 594 142 243 285 489 317 546 67 120 100 156 171
189 l51 23 1364 -2 1364 -3 45 -27 c25 -14 55 -37 67 -50 20 -22 177 -286 531
-893 83 -143 161 -267 174 -275 19 -13 88 -16 423 -18 271 -2 412 0 437 8 44
13 73 58 65 99 -3 15 -41 87 -85 161 -84 143 -474 814 -749 1290 -91 157 -186
316 -211 354 -54 81 -143 158 -228 198 -129 60 -45 58 -1854 57 -1595 0 -1658
-1 -1728 -19z M8885 12211 c-34 -14 -59 -50 -59 -84 1 -22 31 -82 96 -192 52 -88
141 -240 198 -338 73 -126 112 -183 131 -193 24 -12 272 -14 1707 -14 1852 0
1736 4 1823 -63 31 -24 67 -76 142 -202 447 -760 664 -1137 679 -1180 21 -60
23 -126 5 -186 -8 -24 -106 -204 -219 -399 -183 -316 -328 -568 -952 -1655
-115 -200 -179 -301 -207 -327 -77 -70 -51 -68 -843 -68 -659 0 -713 -1 -739
-18 -37 -23 -457 -752 -457 -793 0 -41 9 -58 41 -74 24 -13 183 -15 1131 -15
1216 0 1158 -3 1282 63 116 61 151 107 385 512 442 763 720 1242 941 1620 307
527 539 930 567 985 38 77 56 181 50 289 -8 154 19 99 -462 921 -114 195 -320
549 -457 785 -170 292 -265 445 -297 478 -56 59 -119 100 -197 129 l-59 23
-2105 2 c-1158 1 -2114 -2 -2125 -6z M6098 12118 c-9 -7 -154 -254 -323 -548 -169 -294 -429 -746 -578
-1004 -151 -263 -281 -501 -296 -540 -35 -99 -36 -269 -2 -366 13 -37 108
-207 221 -395 109 -181 326 -546 482 -810 157 -264 368 -619 469 -790 102
-170 281 -474 399 -675 179 -304 226 -375 280 -431 74 -75 176 -130 274 -148
40 -7 392 -11 1067 -11 952 0 1010 1 1067 18 70 22 140 68 181 120 17 20 124
201 239 402 115 201 310 541 434 755 123 215 314 545 423 735 110 190 220 381
245 425 695 1200 960 1666 960 1688 0 23 -18 58 -39 74 -12 9 -129 12 -469 13
-500 0 -496 1 -528 -63 -9 -17 -56 -99 -104 -182 -113 -196 -261 -453 -635
-1105 -169 -294 -419 -728 -555 -965 -136 -236 -309 -538 -384 -670 -150 -263
-184 -305 -269 -330 -75 -22 -1239 -22 -1314 0 -77 23 -122 72 -216 235 -46
80 -146 251 -222 380 -76 129 -255 435 -398 680 -143 245 -350 598 -460 785
-276 467 -273 446 -100 744 688 1193 686 1189 680 1230 -5 33 -384 699 -425
744 -18 20 -80 23 -104 5z"/></g></svg>